<?xml version="1.0" encoding="UTF-8"?>
<svg id="svg4" xmlns="http://www.w3.org/2000/svg" width="16.93mm" height="16.93mm" version="1.1" xmlns:cc="http://creativecommons.org/ns#" xmlns:dc="http://purl.org/dc/elements/1.1/" xmlns:inkscape="http://www.inkscape.org/namespaces/inkscape" xmlns:rdf="http://www.w3.org/1999/02/22-rdf-syntax-ns#" xmlns:sodipodi="http://sodipodi.sourceforge.net/DTD/sodipodi-0.dtd" xmlns:svg="http://www.w3.org/2000/svg" viewBox="0 0 48 48">
  <!-- Generator: Adobe Illustrator 30.0.0, SVG Export Plug-In . SVG Version: 2.1.1 Build 123)  -->
  <sodipodi:namedview id="namedview7" bordercolor="#666666" borderopacity="1" gridtolerance="10" guidetolerance="10" inkscape:current-layer="svg4" inkscape:cx="26.870058" inkscape:cy="24.748737" inkscape:deskcolor="#d1d1d1" inkscape:document-rotation="0" inkscape:pagecheckerboard="0" inkscape:pageopacity="0" inkscape:pageshadow="2" inkscape:showpageshadow="2" inkscape:snap-page="true" inkscape:window-height="1381" inkscape:window-maximized="1" inkscape:window-width="2560" inkscape:window-x="0" inkscape:window-y="0" inkscape:zoom="22.627417" objecttolerance="10" pagecolor="#ffffff" showgrid="true" showguides="true">
    <inkscape:grid id="grid893" empspacing="4" originx="0" originy="0" type="xygrid"/>
  </sodipodi:namedview>
  <rect id="rect1443" x="11" y="6" width="26" height="36" rx="3.09" ry="3.09" inkscape:label="frame" style="fill: none; stroke: #000; stroke-linejoin: round; stroke-width: 2px;"/>
  <g id="g444" inkscape:label="content">
    <path id="path1073" d="M15,19h11" style="fill: none; stroke: #000; stroke-width: 2px;"/>
    <path id="path1075" d="M15,15h18" style="fill: none; stroke: #000; stroke-width: 2px;"/>
    <path id="path1077" d="M15,11h18" style="fill: none; stroke: #000; stroke-width: 2px;"/>
    <path id="path837" d="M15,35h11.13" style="fill: none; stroke: #000; stroke-width: 2px;"/>
    <path id="path839" d="M15,31h18" style="fill: none; stroke: #000; stroke-width: 2px;"/>
    <path id="path841" d="M15,27h18" style="fill: none; stroke: #000; stroke-width: 2px;"/>
  </g>
  <g id="g9367" inkscape:label="sync_circle">
    <circle id="path9155" cx="36" cy="37" r="11" style="fill: #fff;"/>
    <g id="incognito">
      <g id="ic_fluent_incognito_24_regular">
        <path d="M40.52,44.54c-1.79,0-3.32-1.17-3.8-2.87h-1.43c-.48,1.7-2.01,2.87-3.8,2.87-2.18,0-3.95-1.77-3.95-3.95s1.77-3.95,3.95-3.95c1.94,0,3.58,1.4,3.89,3.28h1.24c.32-1.89,1.95-3.28,3.89-3.28,2.18,0,3.95,1.77,3.95,3.95s-1.77,3.95-3.95,3.95ZM40.52,38.38c-1.22,0-2.21.99-2.21,2.21s.99,2.21,2.21,2.21,2.21-.99,2.21-2.21-.99-2.21-2.21-2.21ZM31.48,38.38c-1.22,0-2.21.99-2.21,2.21s.99,2.21,2.21,2.21,2.21-.99,2.21-2.21-.99-2.21-2.21-2.21ZM43.6,36.95c-.07,0-.13,0-.2-.02-2.25-.53-4.74-.8-7.4-.8s-5.15.27-7.4.8c-.07.02-.13.02-.2.02-.41,0-.75-.28-.85-.67-.11-.47.18-.94.65-1.05.59-.14,1.2-.26,1.81-.37-.04-.01-.08-.03-.12-.04-.4-.18-.6-.62-.48-1.04l.04-.1,1.21-2.73c.38-.85,1.19-1.42,2.12-1.49h.17s6.09,0,6.09,0c.93,0,1.78.51,2.22,1.34l.07.15,1.21,2.73c.09.21.1.45.02.67-.08.22-.25.39-.46.48-.04.02-.08.03-.12.04.62.11,1.22.23,1.81.37.47.11.76.58.65,1.05-.09.4-.44.67-.85.67ZM36,34.38c1.84,0,3.6.12,5.27.37-.1-.07-.19-.16-.26-.27l-.05-.09-1.22-2.74c-.11-.25-.35-.42-.62-.45h-.1s-6.06,0-6.06,0c-.27,0-.53.15-.67.38l-.04.09-1.2,2.71c-.07.16-.18.28-.32.37,1.67-.24,3.43-.37,5.27-.37Z" style="fill: #212121;"/>
        <path id="_xD83C__xDFA8_-Color" d="M40.52,36.9c2.04,0,3.7,1.65,3.7,3.7s-1.65,3.7-3.7,3.7c-1.76,0-3.23-1.23-3.6-2.87h-1.83c-.37,1.64-1.85,2.87-3.6,2.87-2.04,0-3.7-1.65-3.7-3.7s1.65-3.7,3.7-3.7c1.9,0,3.47,1.44,3.67,3.28h1.69c.2-1.85,1.77-3.28,3.67-3.28ZM31.48,38.13c-1.36,0-2.46,1.1-2.46,2.46s1.1,2.46,2.46,2.46,2.46-1.1,2.46-2.46-1.1-2.46-2.46-2.46ZM40.52,38.13c-1.36,0-2.46,1.1-2.46,2.46s1.1,2.46,2.46,2.46,2.46-1.1,2.46-2.46-1.1-2.46-2.46-2.46ZM36,34.64c2.78,0,5.36.28,7.74.84.33.08.54.41.46.74-.08.33-.41.54-.74.46-2.28-.54-4.76-.8-7.45-.8s-5.18.27-7.45.8c-.33.08-.66-.13-.74-.46-.08-.33.13-.66.46-.74,2.37-.56,4.95-.84,7.74-.84ZM39.04,29.71c.84,0,1.61.47,1.99,1.2l.07.14,1.21,2.72c.14.31,0,.67-.31.81-.28.13-.61.02-.77-.24l-.04-.07-1.21-2.72c-.15-.34-.47-.57-.83-.6h-.11s-6.08,0-6.08,0c-.37,0-.71.2-.89.51l-.05.1-1.21,2.72c-.14.31-.5.45-.81.31-.28-.13-.43-.44-.34-.73l.03-.08,1.21-2.72c.34-.77,1.08-1.28,1.91-1.34h.16s6.08,0,6.08,0Z" style="fill: #212121;"/>
      </g>
    </g>
  </g>
</svg>